<svg width="20" height="14" viewBox="0 0 20 14" fill="none" xmlns="http://www.w3.org/2000/svg">
<path d="M17.0537 3.57567L16.2424 2.66307H13.1496V0.381592H0.82959V10.8764H2.19848V11.1046C2.19848 12.2453 3.11107 13.1579 4.25181 13.1579C5.39255 13.1579 6.30515 12.2453 6.30515 11.1046V10.8764H13.6059V11.1046C13.6059 12.2453 14.5185 13.1579 15.6592 13.1579C16.8 13.1579 17.7126 12.2453 17.7126 11.1046V10.8764H19.0814V5.85715L17.0537 3.57567ZM4.25181 12.2453C3.613 12.2453 3.11107 11.7434 3.11107 11.1046C3.11107 10.4657 3.613 9.96381 4.25181 9.96381C4.89063 9.96381 5.39255 10.4657 5.39255 11.1046C5.39255 11.7434 4.89063 12.2453 4.25181 12.2453ZM12.237 9.96381H5.94011C5.57507 9.41626 4.93626 9.05122 4.25181 9.05122C3.56737 9.05122 2.92855 9.41626 2.56352 9.96381H1.74218V1.29418H12.237V9.96381ZM15.6592 12.2453C15.0204 12.2453 14.5185 11.7434 14.5185 11.1046C14.5185 10.4657 15.0204 9.96381 15.6592 9.96381C16.298 9.96381 16.8 10.4657 16.8 11.1046C16.8 11.7434 16.298 12.2453 15.6592 12.2453ZM18.1688 9.96381H17.3475C16.9825 9.41626 16.3437 9.05122 15.6592 9.05122C14.9748 9.05122 14.336 9.41626 13.9709 9.96381H13.1496V3.57567H15.8043L18.1688 6.17656V9.96381Z" fill="#8A3F43"/>
</svg>
