<svg width="22" height="23" viewBox="0 0 22 23" fill="none" xmlns="http://www.w3.org/2000/svg">
<path d="M7.57868 10.1865L6.89423 10.8253L8.62816 12.7874H1.37305V13.7H8.62816L6.89423 15.6621L7.57868 16.3009L10.2708 13.2437L7.57868 10.1865Z" fill="#8A3F43"/>
<path d="M17.1152 7.76829H15.0619V6.99258C15.0619 4.84799 13.2823 3.20532 10.9552 3.20532C8.62812 3.20532 6.84856 4.84799 6.84856 6.99258V7.76829H4.79523L4.24767 11.3274L5.16027 11.4643L5.57093 8.68088H16.3395L17.754 17.8068H4.20204L4.61271 15.1603L3.70012 15.0234L3.10693 18.7194H18.7579L17.1152 7.76829ZM7.76116 7.76829V6.99258C7.76116 5.34992 9.13004 4.11791 10.9552 4.11791C12.7804 4.11791 14.1493 5.34992 14.1493 6.99258V7.76829H7.76116Z" fill="#8A3F43"/>
</svg>
