<svg width="14" height="15" viewBox="0 0 14 15" fill="none" xmlns="http://www.w3.org/2000/svg">
<path d="M10.8056 3.67757C12.5907 2.74855 12.535 1.88706 12.3297 1.44628C12.2092 1.19349 11.9957 1.00002 11.7346 0.908765L11.7273 0.90694C11.1889 0.711645 10.4077 0.856747 9.40571 1.33586C8.39912 1.81771 7.4628 2.75677 6.95449 3.3244C6.44526 2.75677 5.50986 1.81771 4.50327 1.33586C3.50215 0.856747 2.72097 0.711645 2.18163 0.90694C1.90603 1.00641 1.69796 1.19258 1.57932 1.44628C1.37399 1.88706 1.31832 2.74764 3.10335 3.67757L0.56543 5.1578V14.0556H13.3417V5.1578L10.8038 3.67757H10.8056ZM7.4117 5.84224V13.143H6.49911V5.84224L6.80209 4.47335H7.11511L7.41079 5.84224H7.4117ZM9.76071 2.09422C10.8421 1.57678 11.3012 1.6434 11.449 1.69725C11.5348 1.72827 11.564 1.77208 11.5804 1.80584C11.6689 1.99749 11.376 2.48481 10.2042 3.04606C9.57819 3.3463 8.80066 3.48866 8.14999 3.56076H7.8753C8.36171 3.05975 9.05254 2.43279 9.76071 2.09422ZM2.33038 1.80493C2.34681 1.77117 2.37693 1.72827 2.4618 1.69633C2.60964 1.6434 3.06867 1.57587 4.15009 2.09331C4.85735 2.43279 5.5491 3.05883 6.0346 3.56076H5.76082C5.11014 3.48866 4.3317 3.34539 3.70657 3.04606C2.5348 2.48481 2.24186 1.99566 2.33038 1.80493ZM5.58651 13.143H1.47985V5.84224H5.58651V13.143ZM5.81192 4.92965H2.39244L3.30503 4.47335H6.00448L5.81284 4.92965H5.81192ZM8.11348 4.92965L7.91089 4.47335H10.6058L11.5184 4.92965H8.11348ZM12.431 13.143H8.32429V5.84224H12.431V13.143Z" fill="#8A3F43"/>
</svg>
