<svg width="18" height="20" viewBox="0 0 18 20" fill="none" xmlns="http://www.w3.org/2000/svg">
<path d="M3.84723 8.97125C4.07096 8.5589 4.53274 8.30568 5.02915 8.32312H8.3906C8.90896 8.27891 9.40511 8.52864 9.64865 8.95635L10.0052 9.86149H10.8586L10.3979 8.69561C10.0404 7.9759 9.24587 7.53268 8.39461 7.57815H5.02915C4.20624 7.56232 3.45132 8.00097 3.10602 8.69561L0.742188 14.6554H7.66943L7.79764 13.9104H1.89205L3.84723 8.97125Z" fill="#8A3F43"/>
<path d="M6.95214 6.46059C8.61169 6.46059 9.95702 5.20983 9.95702 3.66694C9.95702 2.12405 8.61169 0.873291 6.95214 0.873291C5.2926 0.873291 3.94727 2.12405 3.94727 3.66694C3.94727 5.20983 5.2926 6.46059 6.95214 6.46059ZM6.95214 1.61826C8.16915 1.61826 9.15572 2.53549 9.15572 3.66694C9.15572 4.7984 8.16915 5.71562 6.95214 5.71562C5.73514 5.71562 4.74857 4.7984 4.74857 3.66694C4.75077 2.53634 5.73606 1.62031 6.95214 1.61826Z" fill="#8A3F43"/>
<path d="M15.9666 10.5581H9.15556L7.95361 19.1253H17.1686L15.9666 10.5581ZM9.86071 11.3031H15.2615L16.2551 18.3803H8.8671L9.86071 11.3031Z" fill="#8A3F43"/>
<path d="M13.8473 12.0479V12.2825C13.8473 12.9449 13.2697 13.4819 12.5572 13.4819C11.8447 13.4819 11.2671 12.9449 11.2671 12.2825V12.0479H10.7583V12.2825C10.7583 13.2083 11.5655 13.9587 12.5612 13.9587C13.557 13.9587 14.3642 13.2083 14.3642 12.2825V12.0479H13.8473Z" fill="#8A3F43"/>
</svg>
